<svg width="20" height="24" viewBox="0 0 20 24" fill="none" xmlns="http://www.w3.org/2000/svg">
<path d="M13.7807 9.50639C15.3719 8.05566 17.5238 6.09361 17.7199 1.40625H19.1406V0H0.859375V1.40625H2.28011C2.47623 6.09361 4.62808 8.05566 6.2193 9.50639C7.28669 10.4796 7.89062 11.0752 7.89062 12C7.89062 12.9248 7.28669 13.5204 6.2193 14.4936C4.62808 15.9443 2.47623 17.9064 2.28011 22.5938H0.859375V24H19.1406V22.5938H17.7199C17.5238 17.9064 15.3719 15.9443 13.7807 14.4936C12.7133 13.5204 12.1094 12.9248 12.1094 12C12.1094 11.0752 12.7133 10.4796 13.7807 9.50639ZM9.29688 17.2705C9.0797 17.3153 8.86516 17.3805 8.65577 17.4672L4.34903 19.2493C5.05234 17.461 6.18513 16.4278 7.16673 15.5328C8.2622 14.5341 9.29688 13.5907 9.29688 12V17.2705ZM12.8333 15.5328C13.8149 16.4278 14.9476 17.461 15.651 19.2493L11.3442 17.4671C11.1348 17.3805 10.9203 17.3153 10.7031 17.2705V12C10.7031 13.5907 11.7378 14.5341 12.8333 15.5328ZM4.32433 4.6875C3.98434 3.80161 3.74955 2.73197 3.68809 1.40625H16.3119C16.2504 2.73197 16.0157 3.80161 15.6756 4.6875H4.32433Z" fill="black"/>
</svg>
